<?xml version="1.0" encoding="UTF-8"?>
<svg id="Layer_2" data-name="Layer 2" xmlns="http://www.w3.org/2000/svg" viewBox="0 0 622.65 881.8">
  <defs>
    <style>
      .cls-1, .cls-2 {
        fill: #a80c05;
      }

      .cls-1, .cls-3 {
        fill-rule: evenodd;
      }

      .cls-4, .cls-3 {
        fill: none;
        stroke: #a80c05;
        stroke-miterlimit: 100;
        stroke-width: 40px;
      }
    </style>
  </defs>
  <g id="_2" data-name="2">
    <g id="bigCat">
      <circle id="body" class="cls-4" cx="383.46" cy="418.89" r="190.99"/>
      <path id="leftEar" class="cls-1" d="M173.14,318.33c.1.21.4.22.51.02,2.29-4.32,19.24-35.3,47.93-63.15,28.09-27.27,65.58-44.05,70.42-46.16.22-.09.23-.39.02-.51L93.6,96.38c-9.76-5.51-20.85,4.71-16.15,14.89l95.69,207.06Z"/>
      <path id="rightEar" class="cls-1" d="M529.17,239.66c0,.24-.27.37-.46.23-3.89-2.95-32.29-23.95-70.04-37.16-36.95-12.94-78.02-12.42-83.29-12.29-.24,0-.37-.26-.23-.45L508.06,4.83c6.54-9.1,20.9-4.49,20.91,6.72l.19,228.1Z"/>
      <path id="tail" class="cls-3" d="M347.09,606.24s-101.86-30.01-183.41-23.52c-77.75,6.19-41.23,49.89,24.26,73.54,65.48,23.65,100.59,31.57,146.7,72.62,46.11,41.06,44.94,111.62-32.77,119.7-77.71,8.08-185.3-110.89-247.74-105.86-62.45,5.02-20.08,73.48-20.08,73.48"/>
      <circle id="tailBall" class="cls-2" cx="56.97" cy="854.52" r="27.28"/>
      <ellipse id="leftEye" class="cls-2" cx="425.75" cy="383.88" rx="18.64" ry="60.48"/>
      <ellipse id="rightEye" class="cls-2" cx="488.51" cy="381.15" rx="18.64" ry="60.48"/>
      <circle id="leftHand" class="cls-2" cx="428.94" cy="582.59" r="59.11"/>
      <circle id="rightHand" class="cls-2" cx="563.54" cy="570.77" r="59.11"/>
    </g>
  </g>
</svg>