<?xml version="1.0" encoding="UTF-8"?>
<svg id="Layer_2" data-name="Layer 2" xmlns="http://www.w3.org/2000/svg" viewBox="0 0 618.51 788.8">
  <defs>
    <style>
      .cls-1, .cls-2, .cls-3 {
        fill: none;
        stroke-miterlimit: 10;
        stroke-width: 18px;
      }

      .cls-1, .cls-3 {
        stroke: #000;
      }

      .cls-4 {
        fill: #ffb700;
      }

      .cls-2 {
        stroke: #ffb700;
      }

      .cls-3 {
        stroke-linecap: round;
      }
    </style>
  </defs>
  <g id="_2" data-name="2">
    <g id="Pendulum">
      <g>
        <circle class="cls-2" cx="300.05" cy="629" r="120"/>
        <circle class="cls-1" cx="330.05" cy="609" r="120"/>
      </g>
      <g>
        <polygon points="554.31 784.64 448.92 788.8 493.29 693.11 516.46 727.86 603.83 669.62 618.51 691.64 531.14 749.88 554.31 784.64"/>
        <polygon class="cls-4" points="520.86 763.67 420.16 770.71 465.39 680.46 486.45 712.06 571.58 655.31 584.92 675.33 499.8 732.07 520.86 763.67"/>
      </g>
      <g>
        <polygon points="125.22 613.05 171.54 518.29 66.08 520.29 88.54 555.51 0 611.96 14.23 634.27 102.76 577.83 125.22 613.05"/>
        <polygon class="cls-4" points="122.57 572.04 169.63 482.74 68.81 487.72 89.22 519.74 2.95 574.74 15.89 595.03 102.15 540.02 122.57 572.04"/>
      </g>
      <line class="cls-3" x1="450.05" y1="609" x2="450.05" y2="9"/>
    </g>
  </g>
</svg>